<svg xmlns="http://www.w3.org/2000/svg" viewBox="0 0 200 200" width="200" height="200">
  <defs>
    <linearGradient id="pressureGradient" x1="0%" y1="0%" x2="100%" y2="100%">
      <stop offset="0%" style="stop-color:#BF5700;stop-opacity:1" />
      <stop offset="100%" style="stop-color:#9BCBEB;stop-opacity:1" />
    </linearGradient>
    <filter id="glow">
      <feGaussianBlur stdDeviation="3" result="coloredBlur"/>
      <feMerge>
        <feMergeNode in="coloredBlur"/>
        <feMergeNode in="SourceGraphic"/>
      </feMerge>
    </filter>
  </defs>
  
  <!-- Background -->
  <rect width="200" height="200" fill="#0A192F"/>
  
  <!-- Grid lines -->
  <g stroke="#112240" stroke-width="0.5" opacity="0.3">
    <line x1="0" y1="50" x2="200" y2="50"/>
    <line x1="0" y1="100" x2="200" y2="100"/>
    <line x1="0" y1="150" x2="200" y2="150"/>
    <line x1="50" y1="0" x2="50" y2="200"/>
    <line x1="100" y1="0" x2="100" y2="200"/>
    <line x1="150" y1="0" x2="150" y2="200"/>
  </g>
  
  <!-- Pressure wave visualization -->
  <path d="M 10,100 Q 30,60 50,80 T 90,90 T 130,70 T 170,85 T 190,100" 
        stroke="#9BCBEB" stroke-width="3" fill="none" filter="url(#glow)"/>
  
  <!-- Pressure area fill -->
  <path d="M 10,100 Q 30,60 50,80 T 90,90 T 130,70 T 170,85 T 190,100 L 190,180 L 10,180 Z" 
        fill="url(#pressureGradient)" opacity="0.3"/>
  
  <!-- Peak pressure indicators -->
  <circle cx="130" cy="70" r="5" fill="#BF5700" filter="url(#glow)">
    <animate attributeName="r" values="5;8;5" dur="2s" repeatCount="indefinite"/>
    <animate attributeName="opacity" values="1;0.5;1" dur="2s" repeatCount="indefinite"/>
  </circle>
  
  <!-- Metric bars -->
  <g transform="translate(20, 140)">
    <rect x="0" y="0" width="30" height="4" fill="#64748b" opacity="0.5"/>
    <rect x="0" y="0" width="22" height="4" fill="#BF5700"/>
    
    <rect x="40" y="0" width="30" height="4" fill="#64748b" opacity="0.5"/>
    <rect x="40" y="0" width="18" height="4" fill="#9BCBEB"/>
    
    <rect x="80" y="0" width="30" height="4" fill="#64748b" opacity="0.5"/>
    <rect x="80" y="0" width="25" height="4" fill="#10b981"/>
  </g>
</svg>